<?xml version="1.0" encoding="UTF-8" standalone="no"?>
<svg xmlns="http://www.w3.org/2000/svg">
  <path id="path3" d="M 1892.4,12557.7 H 1438.7 V 12104 h 453.7 v 453.7" style="fill:#c61d35;fill-opacity:1;fill-rule:nonzero;stroke:none" transform="matrix(0.13333333,0,0,-0.13333333,0,2318.9733)" />
  <path id="path4" d="M 3480.35,13011.4 H 1892.4 v -453.7 h 1587.95 v 453.7" style="fill:#c61d35;fill-opacity:1;fill-rule:nonzero;stroke:none" transform="matrix(0.13333333,0,0,-0.13333333,0,2318.9733)" />
  <path id="path5" d="m 3934.05,12104 v 453.7 h -453.7 V 12104 h 453.7" style="fill:#c61d35;fill-opacity:1;fill-rule:nonzero;stroke:none" transform="matrix(0.13333333,0,0,-0.13333333,0,2318.9733)" />
  <path id="path6" d="m 4387.75,11650.3 v 453.7 h -453.7 v -453.7 h 453.7" style="fill:#c61d35;fill-opacity:1;fill-rule:nonzero;stroke:none" transform="matrix(0.13333333,0,0,-0.13333333,0,2318.9733)" />
  <path id="path7" d="m 985,12104 v -1814.8 h 453.7 V 12104 H 985" style="fill:#c61d35;fill-opacity:1;fill-rule:nonzero;stroke:none" transform="matrix(0.13333333,0,0,-0.13333333,0,2318.9733)" />
  <path id="path8" d="m 1438.7,10289.2 v -453.75 h 453.7 v 453.75 h -453.7" style="fill:#c61d35;fill-opacity:1;fill-rule:nonzero;stroke:none" transform="matrix(0.13333333,0,0,-0.13333333,0,2318.9733)" />
  <path id="path9" d="m 1892.4,9835.45 v -453.7 h 453.7 v 453.7 h -453.7" style="fill:#c61d35;fill-opacity:1;fill-rule:nonzero;stroke:none" transform="matrix(0.13333333,0,0,-0.13333333,0,2318.9733)" />
  <path id="path10" d="m 2346.1,9381.75 v -453.7 h 453.7 v 453.7 h -453.7" style="fill:#c61d35;fill-opacity:1;fill-rule:nonzero;stroke:none" transform="matrix(0.13333333,0,0,-0.13333333,0,2318.9733)" />
  <path id="path11" d="m 2799.8,8928.05 v -453.7 h 453.7 v 453.7 h -453.7" style="fill:#c61d35;fill-opacity:1;fill-rule:nonzero;stroke:none" transform="matrix(0.13333333,0,0,-0.13333333,0,2318.9733)" />
  <path id="path12" d="m 3253.5,8474.35 v -453.7 h 453.7 v 453.7 h -453.7" style="fill:#c61d35;fill-opacity:1;fill-rule:nonzero;stroke:none" transform="matrix(0.13333333,0,0,-0.13333333,0,2318.9733)" />
  <path id="path13" d="M 6429.4,12557.7 V 12104 h 453.71 v 453.7 H 6429.4" style="fill:#c61d35;fill-opacity:1;fill-rule:nonzero;stroke:none" transform="matrix(0.13333333,0,0,-0.13333333,0,2318.9733)" />
  <path id="path14" d="m 4841.45,13011.4 v -453.7 H 6429.4 v 453.7 H 4841.45" style="fill:#c61d35;fill-opacity:1;fill-rule:nonzero;stroke:none" transform="matrix(0.13333333,0,0,-0.13333333,0,2318.9733)" />
  <path id="path15" d="m 4387.75,12104 h 453.7 v 453.7 h -453.7 V 12104" style="fill:#c61d35;fill-opacity:1;fill-rule:nonzero;stroke:none" transform="matrix(0.13333333,0,0,-0.13333333,0,2318.9733)" />
  <path id="path16" d="m 6883.11,12104 -0.01,-1814.8 h 453.71 V 12104 h -453.7" style="fill:#c61d35;fill-opacity:1;fill-rule:nonzero;stroke:none" transform="matrix(0.13333333,0,0,-0.13333333,0,2318.9733)" />
  <path id="path17" d="m 6429.4,9835.45 h 453.7 v 453.75 h -453.7 v -453.75" style="fill:#c61d35;fill-opacity:1;fill-rule:nonzero;stroke:none" transform="matrix(0.13333333,0,0,-0.13333333,0,2318.9733)" />
  <path id="path18" d="m 5975.7,9381.75 h 453.7 v 453.7 h -453.7 v -453.7" style="fill:#c61d35;fill-opacity:1;fill-rule:nonzero;stroke:none" transform="matrix(0.13333333,0,0,-0.13333333,0,2318.9733)" />
  <path id="path19" d="m 5522,8928.05 h 453.7 v 453.7 H 5522 v -453.7" style="fill:#c61d35;fill-opacity:1;fill-rule:nonzero;stroke:none" transform="matrix(0.13333333,0,0,-0.13333333,0,2318.9733)" />
  <path id="path20" d="m 5068.3,8474.35 h 453.7 v 453.7 h -453.7 v -453.7" style="fill:#c61d35;fill-opacity:1;fill-rule:nonzero;stroke:none" transform="matrix(0.13333333,0,0,-0.13333333,0,2318.9733)" />
  <path id="path21" d="m 4614.6,8020.65 h 453.7 v 453.7 h -453.7 v -453.7" style="fill:#c61d35;fill-opacity:1;fill-rule:nonzero;stroke:none" transform="matrix(0.13333333,0,0,-0.13333333,0,2318.9733)" />
</svg>
